<?xml version="1.0" encoding="UTF-8"?>
<svg width="180px" height="180px" viewBox="0 0 180 180" version="1.1" xmlns="http://www.w3.org/2000/svg" xmlns:xlink="http://www.w3.org/1999/xlink">
    <!-- Generator: Sketch 49 (51002) - http://www.bohemiancoding.com/sketch -->
    <title>programming-code</title>
    <desc>Created with Sketch.</desc>
    <defs>
        <rect id="path-1" x="0" y="0" width="180" height="180" rx="10"></rect>
        <filter x="-1.8%" y="-2.4%" width="105.5%" height="109.5%" filterUnits="objectBoundingBox" id="filter-3">
            <feOffset dx="2" dy="4" in="SourceAlpha" result="shadowOffsetOuter1"></feOffset>
            <feColorMatrix values="0 0 0 0 0   0 0 0 0 0   0 0 0 0 0  0 0 0 0.1 0" type="matrix" in="shadowOffsetOuter1" result="shadowMatrixOuter1"></feColorMatrix>
            <feMerge>
                <feMergeNode in="shadowMatrixOuter1"></feMergeNode>
                <feMergeNode in="SourceGraphic"></feMergeNode>
            </feMerge>
        </filter>
    </defs>
    <g id="Responsive" stroke="none" stroke-width="1" fill="none" fill-rule="evenodd">
        <g id="programming-code">
            <mask id="mask-2" fill="white">
                <use xlink:href="#path-1"></use>
            </mask>
            <use id="Rectangle-6" fill="#7272FF" xlink:href="#path-1"></use>
            <rect id="Rectangle-6" fill="#7272FF" mask="url(#mask-2)" x="0" y="0" width="180" height="180" rx="10"></rect>
            <path d="M156.626801,89.348884 C155.677188,90.2540454 154.233978,90.391667 153.1313,89.682208 C152.028621,88.972749 151.551675,87.5997061 151.97612,86.3566537 L165.569855,72.7229376 C167.352862,70.934686 167.352862,68.0353574 165.569855,66.2471058 C163.786847,64.4588542 160.896021,64.4588542 159.113014,66.2471058 L152.444113,72.9356206 C151.429588,73.5871164 150.11589,73.5270144 149.164719,72.7855878 C148.213547,72.0441612 147.83119,70.7822084 148.210239,69.6353666 L155.347132,62.4774823 C157.13014,60.6892307 157.13014,57.7899021 155.347132,56.0016505 C153.564125,54.2133989 150.673299,54.2133989 148.890291,56.0016505 L137.409838,67.523204 C135.143505,69.6170228 131.634042,69.5458507 129.453956,67.3618583 C127.236276,65.151169 127.184325,61.569015 129.336958,59.2945706 L140.78085,47.8170205 C142.563857,46.0287689 142.563857,43.1294403 140.78085,41.3411887 C138.997842,39.5529371 136.107016,39.5529371 134.324009,41.3411887 L105.074445,70.6767801 C102.980472,72.70198 99.6460363,72.6412352 97.6267754,70.5411029 C95.6075145,68.4409706 95.668081,65.096728 97.7620545,63.071528 L103.699716,57.116403 C105.811696,54.5725799 105.630282,50.8305964 103.282193,48.5042747 C100.934105,46.1779529 97.2011527,46.041856 94.6908503,48.1910493 L72.2271857,70.7207835 C70.9297233,71.9259089 68.914559,71.8870418 67.6642539,70.6327767 C66.413667,69.3787942 66.3749139,67.357703 67.5765052,66.0564245 L69.0389833,64.5896449 C70.3272718,63.2975673 70.3272718,61.2026956 69.0389833,59.9106181 C67.7506948,58.6185405 65.6619665,58.6185405 64.373678,59.9106181 L30.0054411,94.379938 C29.3865427,95.0002875 29.0388183,95.8418836 29.0388183,96.7194514 C29.0388183,97.5970192 29.3865427,98.4386153 30.0054411,99.0589648 C30.6239714,99.6796835 31.4630995,100.028431 32.3380938,100.028431 C33.2130881,100.028431 34.0522161,99.6796835 34.6707465,99.0589648 L39.1971164,94.519282 C40.5088892,93.4719443 42.3960782,93.5813035 43.5788517,94.7731956 C44.7616252,95.9650877 44.8617114,97.8583246 43.811235,99.1689733 L18.8613575,124.206901 C17.6695554,125.402114 17,127.023227 17,128.713581 C17,130.403934 17.6695554,132.025048 18.8613575,133.220261 C20.0530657,134.415568 21.6694253,135.087093 23.3548217,135.087093 C25.040218,135.087093 26.6565776,134.415568 27.8482858,133.220261 L48.3229801,112.685347 C50.3422411,110.585215 53.6766766,110.52447 55.7706502,112.54967 C57.8646238,114.57487 57.9251904,117.919113 55.9059294,120.019245 L53.2295944,122.703451 C52.0761908,123.860247 51.6257354,125.546314 52.0479104,127.126527 C52.4700854,128.70674 53.7007524,129.941026 55.276331,130.364443 C56.8519096,130.787859 58.5330319,130.336079 59.6864355,129.179283 L79.64195,109.13574 C81.9062949,107.147527 85.3164483,107.247818 87.4607421,109.365688 C89.605036,111.483558 89.7573165,114.901801 87.8098906,117.203028 L81.8356673,123.224158 C80.2903835,124.781853 80.0670918,127.221201 81.3037531,129.035048 C82.5404145,130.848895 84.8879123,131.525182 86.8958417,130.646063 L82.5084072,135.046402 C81.7873667,135.769563 81.5057683,136.823593 81.7696875,137.81145 C82.0336066,138.799306 82.8029477,139.57091 83.7879074,139.835606 C84.772867,140.100301 85.8238065,139.817874 86.544847,139.094713 L97.9448643,127.661166 C99.738109,125.977542 102.539349,126.022961 104.277395,127.763841 C105.592666,129.090864 105.961387,131.091307 105.206068,132.802229 L86.2669761,151.797024 C85.5459356,152.520186 85.2643371,153.574216 85.5282563,154.562073 C85.7921754,155.549929 86.5615165,156.321533 87.5464762,156.586228 C88.5314359,156.850924 89.5823753,156.568497 90.3034159,155.845336 L119.8601,126.253058 C118.093246,128.055486 118.1178,130.953173 119.914943,132.725223 C121.712085,134.497273 124.601274,134.472647 126.368127,132.670219 L169.971914,88.9381858 C171.125317,87.7813898 171.575773,86.095323 171.153598,84.5151104 C170.731423,82.9348978 169.500756,81.7006112 167.925177,81.2771945 C166.349599,80.8537778 164.668476,81.305558 163.515073,82.462354 L156.626801,89.348884 Z" id="Shape" fill-opacity="0.2" fill="#FFFFFF" fill-rule="nonzero" mask="url(#mask-2)"></path>
            <path d="M26.6780936,105.643635 C25.8221161,104.785455 24.4346363,104.785455 23.5786588,105.643635 L11.843628,117.433631 C11.1781378,117.954436 10.8699414,118.812217 11.05123,119.639057 C11.2325185,120.465897 11.8710787,121.114874 12.6930206,121.307631 C13.5149624,121.500388 14.374235,121.202673 14.9022807,120.542182 L26.6780936,108.752185 C27.5337563,107.89369 27.5337563,106.50213 26.6780936,105.643635 Z" id="Shape" fill-opacity="0.2" fill="#FFFFFF" fill-rule="nonzero" mask="url(#mask-2)"></path>
            <path d="M179.925597,140.425669 L176.065134,140.425669 L176.065134,136.541753 C175.91989,135.652664 175.153842,135 174.255542,135 C173.357241,135 172.591193,135.652664 172.44595,136.541753 L172.44595,140.425669 L168.537231,140.425669 C167.65075,140.57134 167,141.339641 167,142.240583 C167,143.141526 167.65075,143.909827 168.537231,144.055498 L172.409758,144.055498 L172.409758,147.939414 C172.292278,148.658552 172.609243,149.37943 173.217909,149.777406 C173.826575,150.175382 174.612125,150.175382 175.220791,149.777406 C175.829457,149.37943 176.146422,148.658552 176.028942,147.939414 L176.028942,144.103895 L179.901469,144.103895 C180.618497,144.221721 181.337262,143.903824 181.734071,143.293368 C182.130879,142.682911 182.130879,141.895051 181.734071,141.284595 C181.337262,140.674138 180.618497,140.356241 179.901469,140.474067 L179.925597,140.425669 Z" id="Shape" fill="#FFFFFF" fill-rule="nonzero" mask="url(#mask-2)"></path>
            <path d="M28.4160719,25.0864053 L25.0064559,25.0864053 L25.0064559,21.7543423 C24.8781748,20.9915819 24.2015903,20.4316525 23.4081984,20.4316525 C22.6148064,20.4316525 21.938222,20.9915819 21.8099409,21.7543423 L21.8099409,25.0864053 L18.3577047,25.0864053 C17.5747521,25.2113781 17,25.8705136 17,26.6434441 C17,27.4163746 17.5747521,28.0755101 18.3577047,28.2004829 L21.7779757,28.2004829 L21.7779757,31.5325459 C21.6742158,32.1495033 21.9541636,32.7679546 22.4917461,33.1093832 C23.0293286,33.4508119 23.7231379,33.4508119 24.2607203,33.1093832 C24.7983028,32.7679546 25.0782507,32.1495033 24.9744907,31.5325459 L24.9744907,28.2420039 L28.3947618,28.2420039 C29.0280516,28.3430879 29.6628748,28.0703599 30.0133419,27.5466415 C30.363809,27.0229232 30.363809,26.3470071 30.0133419,25.8232888 C29.6628748,25.2995704 29.0280516,25.0268424 28.3947618,25.1279264 L28.4160719,25.0864053 Z" id="Shape-Copy-2" fill="#FFFFFF" fill-rule="nonzero" mask="url(#mask-2)"></path>
            <path d="M44.4560176,160.976696 L41.6176833,160.976696 L41.6176833,158.130014 C41.5112284,157.478365 40.9497604,157 40.2913589,157 C39.6329574,157 39.0714894,157.478365 38.9650344,158.130014 L38.9650344,160.976696 L36.1267001,160.976696 C35.4769618,161.083464 35,161.646584 35,162.306922 C35,162.96726 35.4769618,163.530379 36.1267001,163.637147 L38.9650344,163.637147 L38.9650344,166.483829 C38.8789286,167.010915 39.1112451,167.539277 39.5573615,167.830969 C40.0034778,168.122662 40.57924,168.122662 41.0253563,167.830969 C41.4714727,167.539277 41.7037892,167.010915 41.6176833,166.483829 L41.6176833,163.637147 L44.4560176,163.637147 C44.9815573,163.723506 45.5083695,163.490506 45.799207,163.043078 C46.0900444,162.59565 46.0900444,162.018194 45.799207,161.570765 C45.5083695,161.123337 44.9815573,160.890337 44.4560176,160.976696 Z" id="Shape" fill="#FFFFFF" fill-rule="nonzero" mask="url(#mask-2)"></path>
            <ellipse id="Oval" fill="#FFFFFF" fill-rule="nonzero" mask="url(#mask-2)" cx="109.907168" cy="23.9127778" rx="1.90716846" ry="1.91277778"></ellipse>
            <ellipse id="Oval" fill="#FFFFFF" fill-rule="nonzero" mask="url(#mask-2)" cx="113.334771" cy="168.344579" rx="3.33477107" ry="3.34457922"></ellipse>
            <polygon id="Shape" fill="#FFFFFF" fill-rule="nonzero" mask="url(#mask-2)" points="154.068109 16.2709606 150.650003 6 159.805644 8.77856512"></polygon>
            <polygon id="Shape-Copy-3" fill="#FFFFFF" fill-rule="nonzero" mask="url(#mask-2)" transform="translate(141.607610, 61.183266) rotate(86.000000) translate(-141.607610, -61.183266) " points="140.85962 64.5932193 138.655018 57.7733118 144.560201 59.6182762"></polygon>
            <g id="Group-11" filter="url(#filter-3)" mask="url(#mask-2)" fill="#FFFFFF" fill-rule="nonzero">
                <g transform="translate(35.000000, 48.000000)" id="Shape">
                    <path d="M103.176081,0.265642458 L6.59664122,0.265642458 C2.95852417,0.265642458 0,3.21899441 0,6.84916201 L0,77.2027933 C0,80.8329609 2.95852417,83.7860335 6.59664122,83.7860335 L103.176361,83.7860335 C106.813359,83.7860335 109.771883,80.8329609 109.771883,77.2027933 L109.771883,6.84916201 C109.772723,3.21927374 106.813079,0.265642458 103.176081,0.265642458 Z M101.855802,75.8857542 L7.91608142,75.8857542 L7.91608142,7.80865922 L101.855802,7.80865922 L101.855802,75.8857542 Z"></path>
                    <path d="M23.5632316,45.4145251 L41.2203308,53.6089385 C41.6768448,53.8198324 42.1627481,53.9268156 42.6651654,53.9268156 C43.3195674,53.9268156 43.9574555,53.7413408 44.5119338,53.3893855 C45.5047328,52.7561453 46.0978372,51.677095 46.0978372,50.5027933 L46.0978372,50.4128492 C46.0978372,49.0854749 45.3183206,47.8664804 44.1116794,47.3072626 L33.0682952,42.1865922 L44.1116794,37.0653631 C45.3183206,36.5055866 46.0978372,35.2868715 46.0978372,33.9600559 L46.0978372,33.8709497 C46.0978372,32.6949721 45.5047328,31.6153631 44.5119338,30.9843575 C43.9630534,30.6343575 43.323486,30.449162 42.6632061,30.449162 C42.1652672,30.449162 41.6659288,30.5583799 41.2189313,30.7656425 L23.5629517,38.9592179 C22.35743,39.5189944 21.5784733,40.7382682 21.5784733,42.0645251 L21.5784733,42.3094972 C21.5781934,43.6337989 22.3565903,44.852514 23.5632316,45.4145251 Z"></path>
                    <path d="M46.2551399,62.1050279 C46.8991858,62.9846369 47.9350891,63.5100559 49.0261323,63.5100559 L49.1145802,63.5100559 C50.6125954,63.5100559 51.9250382,62.5530726 52.3815522,61.1310056 L64.0127226,25.1642458 C64.3463613,24.126257 64.1613486,22.9804469 63.5170229,22.099162 C62.8729771,21.2192737 61.8370738,20.6941341 60.7457506,20.6941341 L60.6575827,20.6941341 C59.1590076,20.6941341 57.8451654,21.650838 57.3886514,23.072905 L45.7563613,59.0424581 C45.4252417,60.0818436 45.6116539,61.2259777 46.2551399,62.1050279 Z"></path>
                    <path d="M63.6740458,33.9597765 C63.6740458,35.2851955 64.4530025,36.5041899 65.6599237,37.0667598 L76.7033079,42.1865922 L65.6599237,47.3067039 C64.4535623,47.8664804 63.6740458,49.0854749 63.6740458,50.4122905 L63.6740458,50.5022346 C63.6740458,51.6768156 64.2665903,52.7558659 65.2605089,53.3893855 C65.813028,53.7407821 66.4511959,53.9268156 67.1064377,53.9268156 C67.6082952,53.9268156 68.0939186,53.8198324 68.5535115,53.6078212 L86.2094911,45.4136872 C87.4150127,44.852514 88.1939695,43.6337989 88.1939695,42.3089385 L88.1939695,42.0639665 C88.1939695,40.7377095 87.4150127,39.5184358 86.2083715,38.9586592 L68.5523919,30.7650838 C68.1070738,30.5583799 67.6082952,30.449162 67.1103562,30.449162 C66.4511959,30.449162 65.8107888,30.6337989 65.2619084,30.9832402 C64.2679898,31.6153631 63.6748855,32.6946927 63.6748855,33.8706704 L63.6748855,33.9594972 L63.6740458,33.9594972 L63.6740458,33.9597765 Z"></path>
                </g>
            </g>
        </g>
    </g>
</svg>